<?xml version="1.0" encoding="UTF-8"?>
<svg version="1.1" xmlns="http://www.w3.org/2000/svg" width="386" height="221">
<path d="M0 0 C-1 3 -1 3 -3.625 4.46484375 C-4.73875 4.95082031 -5.8525 5.43679687 -7 5.9375 C-8.18335938 6.46730469 -9.36671875 6.99710938 -10.5859375 7.54296875 C-12.53404767 8.37437046 -14.49254993 9.18412355 -16.4765625 9.92578125 C-38.21365867 18.26492178 -52.04868689 46.52218475 -61.03027344 66.26464844 C-61.70560397 67.83516623 -62.35667964 69.4161009 -63 71 C-54.34145239 70.51896958 -47.10074187 67.63219235 -41.0625 61.25 C-37.79634244 57.21352226 -36.21714985 53.00770225 -35 48 C-34.01 48.33 -33.02 48.66 -32 49 C-33.95721544 58.09639177 -37.68979964 63.37551333 -44.75 69.3125 C-51.44322502 72.78782838 -58.47149769 74.50190015 -66 74 C-66.37125 75.2375 -66.37125 75.2375 -66.75 76.5 C-67.75119114 79.30333519 -68.76052849 81.30153282 -70.25 83.8125 C-72.3709507 87.92184199 -71.83735702 90.32452608 -70.59765625 94.65234375 C-68.27896564 103.76040293 -70.7264024 112.8615837 -75 121 C-74.40832031 121.15855469 -73.81664063 121.31710938 -73.20703125 121.48046875 C-67.98824943 123.02141412 -64.2235936 124.36608421 -61 129 C-59.63397632 133.44563921 -59.42282995 136.74071989 -61.375 141 C-65.06030619 143.80785234 -68.46372955 143.89337826 -73 144 C-73.20496094 142.87980469 -73.40992187 141.75960937 -73.62109375 140.60546875 C-73.89311689 139.13279176 -74.16525849 137.66013664 -74.4375 136.1875 C-74.63956055 135.08051758 -74.63956055 135.08051758 -74.84570312 133.95117188 C-75.41419737 130.88684924 -76.01309651 127.96071047 -77 125 C-77.66 125 -78.32 125 -79 125 C-79.23460938 125.59425781 -79.46921875 126.18851562 -79.7109375 126.80078125 C-81.29461399 129.50262933 -83.00440279 130.50283036 -85.625 132.1875 C-88.95524469 134.64293672 -88.95524469 134.64293672 -90.73046875 138.2421875 C-90.92208963 143.66232098 -89.34885995 146.68876002 -86 151 C-83.87577742 152.73084803 -81.79869843 154.31325607 -79.5625 155.875 C-71.58706045 161.7363344 -68.64775838 166.58794517 -66 176 C-64.40262897 168.81277815 -62.81915613 161.62259669 -61.24536133 154.43017578 C-60.70820413 151.98318044 -60.16785557 149.5368834 -59.62426758 147.09130859 C-58.84399066 143.57828103 -58.07518225 140.06291145 -57.30859375 136.546875 C-57.06282089 135.4519574 -56.81704803 134.35703979 -56.56382751 133.22894287 C-56.34352371 132.20818665 -56.12321991 131.18743042 -55.89624023 130.13574219 C-55.6986058 129.23861511 -55.50097137 128.34148804 -55.29734802 127.41717529 C-54.99364797 124.94836364 -55.22414538 123.34287271 -56 121 C-57.65 120.67 -59.3 120.34 -61 120 C-61 119.34 -61 118.68 -61 118 C-53.08 118 -45.16 118 -37 118 C-38.22971128 125.75664037 -39.68863812 133.404497 -41.4140625 141.06640625 C-42.09793251 143.99172589 -42.09793251 143.99172589 -42 147 C-40.824375 145.7934375 -40.824375 145.7934375 -39.625 144.5625 C-35.53182192 141.15798458 -31.21153945 140.69542951 -26 141 C-21.85122738 142.48170451 -20.44742125 143.32886813 -18 147 C-16.54288382 153.11286972 -17.15479081 158.7049063 -18.46875 164.76171875 C-18.62790894 165.55600784 -18.78706787 166.35029694 -18.9510498 167.1686554 C-19.45470406 169.67771688 -19.97550188 172.18271936 -20.5 174.6875 C-21.02344064 177.20315087 -21.54265243 179.71931946 -22.0489502 182.23847961 C-22.3625172 183.79769371 -22.68581055 185.35499425 -23.02038574 186.90983582 C-23.89430968 191.24304201 -24.02886815 194.69310019 -23 199 C-20.56282742 198.72965366 -20.56282742 198.72965366 -18 198 C-16.03364592 195.05046888 -15.60903919 193.72777128 -15.0703125 190.34375 C-14.83973145 188.94672852 -14.83973145 188.94672852 -14.60449219 187.52148438 C-14.44625977 186.52439453 -14.28802734 185.52730469 -14.125 184.5 C-12.72564342 176.0075377 -11.15885776 167.59165729 -9.21923828 159.20507812 C-8.21196446 154.68908312 -7.82946402 150.62883368 -8 146 C-9.65 145.67 -11.3 145.34 -13 145 C-13 144.01 -13 143.02 -13 142 C-5.41 142 2.18 142 10 142 C9.36993516 148.93071325 8.71624753 155.18149686 7.15234375 161.8515625 C6.79090483 163.46091262 6.42958007 165.07028838 6.06835938 166.6796875 C5.50294228 169.15956116 4.93435003 171.63866551 4.36303711 174.1171875 C3.80548331 176.54770993 3.25971282 178.98067 2.71484375 181.4140625 C2.45706398 182.5066185 2.45706398 182.5066185 2.19407654 183.62124634 C1.03173128 188.83966078 0.85541896 193.6534655 1 199 C4.3715529 198.27349383 6.26583796 197.09619089 9 195 C9.66 195 10.32 195 11 195 C9.48626976 198.85313152 7.51632085 200.83035522 4 203 C-0.54540514 204.26213876 -4.56775014 204.47365272 -9 202.75 C-12 201 -12 201 -13 198 C-13.70962891 198.52400391 -13.70962891 198.52400391 -14.43359375 199.05859375 C-19.47032365 202.52441374 -23.80597038 204.39961481 -30 204 C-34.14611246 202.95953071 -36.57056587 201.64415119 -39 198 C-40.16346164 192.72564058 -39.80232037 188.22881174 -38.75 183 C-38.61231201 182.26305908 -38.47462402 181.52611816 -38.33276367 180.7668457 C-37.65130743 177.15934083 -36.91351372 173.56686406 -36.12890625 169.98046875 C-34.44936611 162.17743777 -33.59855878 154.98421983 -34 147 C-37.617431 147.60417981 -37.95940095 147.94899094 -40.4375 151.0625 C-48.97592169 165.98527348 -51.24656618 185.38537651 -55 202 C-60.28 202 -65.56 202 -71 202 C-70.67 199.03 -70.34 196.06 -70 193 C-71.010625 194.093125 -72.02125 195.18625 -73.0625 196.3125 C-80.1017781 203.23982139 -87.36203753 203.98830344 -97 204 C-103.21391942 203.48529282 -108.65218066 201.6173607 -113 197 C-115.71813082 192.83644175 -116.32546924 189.07527168 -115.5625 184.1875 C-114.60993696 180.79801188 -114.19134031 180.14350523 -111.25 177.9375 C-107.97180314 176.99186629 -105.38575115 176.92906946 -102 177 C-101.81824219 178.87945312 -101.81824219 178.87945312 -101.6328125 180.796875 C-101.46395167 182.44795865 -101.29465817 184.09899809 -101.125 185.75 C-101.04636719 186.575 -100.96773438 187.4 -100.88671875 188.25 C-100.80292969 189.04921875 -100.71914062 189.8484375 -100.6328125 190.671875 C-100.52283936 191.77160645 -100.52283936 191.77160645 -100.41064453 192.89355469 C-99.95415811 195.2351509 -99.23448253 196.96196541 -98 199 C-94.53687225 200.73156388 -90.77785746 200.61171713 -87 200 C-83.66255055 196.91285926 -82.16918387 194.07250242 -81.796875 189.51171875 C-81.65326645 181.79913855 -81.65326645 181.79913855 -85 175 C-88.19629626 171.8624862 -91.65801981 169.06776001 -95.16015625 166.28125 C-99.79425269 162.4700305 -103.40651079 158.92451115 -105 153 C-105.29331307 149.30425538 -105.24465086 145.69694629 -105 142 C-106.0725 142.33 -107.145 142.66 -108.25 143 C-115.64717858 144.81341768 -122.98369473 144.80554949 -130.25 142.5 C-134.88824785 141.05431236 -139.12116494 140.86740913 -143.9375 141 C-153.67605567 141.2135044 -162.62454255 140.18085187 -170.3125 133.7421875 C-174.29872092 129.62678349 -177.57374973 124.82542038 -178 119 C-178.061875 118.36707031 -178.12375 117.73414062 -178.1875 117.08203125 C-178.74997623 107.15081036 -174.54986422 98.36702387 -168.23828125 90.921875 C-155.11033161 76.65341957 -134.73622249 69.20468689 -115.734375 67.75 C-102.41684219 67.47681984 -91.55105953 70.91833738 -81 79 C-79.68 77.02 -78.36 75.04 -77 73 C-77.66386719 72.5875 -78.32773438 72.175 -79.01171875 71.75 C-85.40268827 67.57021264 -90.27799825 63.53262499 -92.60546875 56.0546875 C-94.20335165 47.73303993 -92.98258396 39.91297859 -88.59375 32.68359375 C-79.35987541 19.81279214 -66.32661713 15.91688897 -51.3203125 13.40234375 C-48.25740848 12.89955848 -45.19192998 12.41505745 -42.125 11.9375 C-39.04249002 11.45705494 -35.96225697 10.96451885 -32.8828125 10.46484375 C-32.19414093 10.36163315 -31.50546936 10.25842255 -30.79592896 10.15208435 C-22.72519498 8.84030145 -16.09282162 5.0567013 -8.96484375 1.20703125 C-5.74510748 -0.10377047 -3.44181093 -0.23013595 0 0 Z M-63.875 22.3125 C-75.13682603 28.55993634 -82.02220365 36.5255643 -87.4375 48.0625 C-88.43443871 53.26873548 -88.46317818 57.70520312 -85.54296875 62.28515625 C-82.32956378 66.1426424 -79.80582164 68.35110602 -75 70 C-74.3709375 68.98421875 -73.741875 67.9684375 -73.09375 66.921875 C-65.5971527 54.84778764 -58.15055762 42.91582267 -49 32 C-48.38640625 31.23945312 -47.7728125 30.47890625 -47.140625 29.6953125 C-41.8262659 23.34882581 -35.73337421 18.74702882 -29 14 C-38.51183462 10.82938846 -55.04306446 18.13615839 -63.875 22.3125 Z M-163.15234375 95.31640625 C-169.27242305 102.54922724 -172.84980174 111.07862598 -172.37890625 120.6484375 C-171.46824357 126.3001791 -169.19082248 130.40254521 -164.625 133.875 C-159.26663917 137.50649573 -154.00300211 138.24533966 -147.625 138.125 C-146.37976563 138.10695313 -145.13453125 138.08890625 -143.8515625 138.0703125 C-142.44003906 138.03550781 -142.44003906 138.03550781 -141 138 C-143.14552079 135.83625823 -145.29942242 133.72978952 -147.5625 131.6875 C-153.05263868 125.63427018 -153.56299441 120.12735902 -153.34375 112.15234375 C-152.57919922 105.14106557 -149.11539058 100.358189 -144.0546875 95.6015625 C-134.9212584 88.4823497 -124.39446987 86.01238101 -113 87 C-109.85805246 87.69472449 -106.86521024 88.51635194 -104 90 C-103.505 90.99 -103.505 90.99 -103 92 C-104.03125 91.505 -105.0625 91.01 -106.125 90.5 C-113.01790985 87.95793396 -120.86953057 87.68856194 -127.87890625 89.9140625 C-130.41157597 91.11273061 -132.68073022 92.43022494 -135 94 C-135.64582031 94.43441406 -136.29164063 94.86882812 -136.95703125 95.31640625 C-142.7559296 99.75085793 -147.72031043 106.71998822 -149 114 C-149.51258816 119.97362357 -149.58242861 124.96220977 -146 130 C-143.55483977 132.69885235 -141.20638779 135.24238287 -138 137 C-124.71643957 136.44050221 -112.04365397 124.50646484 -103.4375 115.3125 C-89.24134896 99.59482236 -89.24134896 99.59482236 -82 81 C-108.31379066 59.59507267 -142.74807241 73.3568184 -163.15234375 95.31640625 Z M-75 92 C-75.81791016 93.23363281 -75.81791016 93.23363281 -76.65234375 94.4921875 C-91.07214547 115.96353726 -109.28344559 130.31469636 -134 138 C-128.84881968 141.43412022 -124.59100509 141.18302102 -118.625 141.1875 C-117.34882812 141.20586914 -117.34882812 141.20586914 -116.046875 141.22460938 C-109.76225142 141.28128239 -109.76225142 141.28128239 -104 139 C-102.60051843 137.19674821 -102.60051843 137.19674821 -101.75 135.0625 C-101.43546875 134.37285156 -101.1209375 133.68320313 -100.796875 132.97265625 C-100.13674209 131.33850371 -99.55733563 129.67200688 -99 128 C-97.4375 127 -97.4375 127 -95 126 C-94.41863281 125.75121094 -93.83726563 125.50242188 -93.23828125 125.24609375 C-89.62010005 123.77465267 -86.72902311 122.92682545 -82.8125 122.875 C-79.01075455 122.41082747 -79.01075455 122.41082747 -77.421875 120.08203125 C-73.91688921 113.90801892 -72.84981483 109.03478081 -72.8125 101.9375 C-72.79832031 100.70902344 -72.78414062 99.48054688 -72.76953125 98.21484375 C-72.74499425 94.84757578 -72.74499425 94.84757578 -75 92 Z M-85 124 C-86.65 125.98 -88.3 127.96 -90 130 C-89.67 130.66 -89.34 131.32 -89 132 C-86.36 129.69 -83.72 127.38 -81 125 C-82.32 124.67 -83.64 124.34 -85 124 Z M-44 149 C-43 151 -43 151 -43 151 Z M-68 184 C-67 186 -67 186 -67 186 Z M-69 188 C-68 190 -68 190 -68 190 Z " fill="#000000" transform="translate(179,9)"/>
<path d="M0 0 C1.3125 2.6875 1.3125 2.6875 2 5 C2.66 5 3.32 5 4 5 C4.2784375 4.13375 4.2784375 4.13375 4.5625 3.25 C6.71715457 -0.1225028 9.31384813 -1.69060935 13 -3 C20.23342481 -4.27919345 27.10534679 -4.70861376 34 -2 C36.59457559 0.20814944 38.4780441 1.95608819 40 5 C40.70962891 4.27683594 40.70962891 4.27683594 41.43359375 3.5390625 C47.37834408 -2.13915906 51.86004934 -3.96020683 60.02734375 -4.0234375 C66.17455414 -3.73469338 70.36513054 -3.14698846 75 1 C77.47342266 4.71013399 77.38503486 6.61060262 77 11 C76.0625 13.375 76.0625 13.375 74 15 C71.00762978 15.62606327 68.05114366 15.87206945 65 16 C64.95101562 15.18015625 64.90203125 14.3603125 64.8515625 13.515625 C64.73941406 11.89914063 64.73941406 11.89914063 64.625 10.25 C64.52058594 8.64898437 64.52058594 8.64898437 64.4140625 7.015625 C64.0271777 4.19793568 63.44313834 2.4169634 62 0 C57.23156651 -0.49312822 57.23156651 -0.49312822 53.0625 1.4375 C51.41823408 5.40308252 50.89728293 8.80256084 52 13 C54.2668053 15.89354476 57.00831286 17.89360804 60 20 C71.60304629 28.30577774 71.60304629 28.30577774 72.9375 36.3125 C73.37952981 42.70576046 71.68653997 47.90322058 67.6875 52.875 C60.94229195 58.20842032 53.97780618 59.67238806 45.46484375 58.71484375 C41.15891822 57.85940946 37.56091932 56.67068949 34 54 C33.67 53.34 33.34 52.68 33 52 C31.03740548 52.96400568 29.10397649 53.93983893 27.2109375 55.03515625 C19.57060797 59.31048958 11.82751781 59.79634289 3.33984375 57.87890625 C-0.50109185 56.43615081 -3.20516074 53.94291021 -6 51 C-6.639375 51.763125 -7.27875 52.52625 -7.9375 53.3125 C-12.00582384 57.32368446 -16.93022911 58.92602962 -22.59375 59.0625 C-29.3232731 58.57602845 -33.98409136 57.10754085 -38.75 52.125 C-44.14373069 44.63370738 -44.60386527 36.16240459 -43.5 27.1875 C-41.5780295 17.34701102 -37.06280666 7.45909121 -28.9765625 1.26171875 C-20.67983243 -4.03441526 -8.23880942 -6.99050496 0 0 Z M-19.5 1.3125 C-25.31140798 8.94779602 -26.7704923 18.73015907 -28 28 C-23.27735622 27.71664137 -19.89208721 27.00827999 -16.35546875 23.69921875 C-11.51577406 17.63216633 -10.5568225 10.7996961 -10.6640625 3.25 C-10.80150739 0.80186784 -10.80150739 0.80186784 -13 -1 C-17.07818924 -1.45269465 -17.07818924 -1.45269465 -19.5 1.3125 Z M15.6875 0.5 C13.44875214 3.8166635 12.58960099 6.9930133 13 11 C15.40560957 16.54528382 19.91823586 18.94994478 24.81835938 22.07421875 C30.19404077 25.68090595 33.11145741 29.51987485 34.75 35.9375 C34.87375 36.9584375 34.87375 36.9584375 35 38 C37.64 37.34 40.28 36.68 43 36 C42.96519531 36.6290625 42.93039063 37.258125 42.89453125 37.90625 C42.70029611 44.04778025 43.32057817 48.44268064 46 54 C49.7205836 56.48038907 51.59796571 56.46337203 56 56 C58.74050976 54.34127041 59.70538086 53.00820965 60.6015625 49.94140625 C61.31677124 45.78337894 61.45114936 43.83289113 59.375 40 C56.84090604 36.79903921 54.32598425 34.72813386 51 32.375 C40.89964158 25.17849462 40.89964158 25.17849462 39.25 18.25 C39.00765625 17.26515625 38.7653125 16.2803125 38.515625 15.265625 C38.34546875 14.51796875 38.1753125 13.7703125 38 13 C33.05 14.485 33.05 14.485 28 16 C28.0928125 13.9890625 28.0928125 13.9890625 28.1875 11.9375 C28.20243026 7.21207138 27.17157378 4.16942165 25 0 C23.90076459 -1.30746709 23.90076459 -1.30746709 21.1875 -1.3125 C17.99062958 -1.24566352 17.99062958 -1.24566352 15.6875 0.5 Z M0 19 C-0.495 19.7425 -0.99 20.485 -1.5 21.25 C-8.32798964 28.7607886 -18.44892764 29.04363439 -28 30 C-28.08138426 32.87557703 -28.14067851 35.74882262 -28.1875 38.625 C-28.21263672 39.43324219 -28.23777344 40.24148437 -28.26367188 41.07421875 C-28.32577278 46.16649308 -27.81054559 49.57662316 -25 54 C-23.0757881 56.30831658 -23.0757881 56.30831658 -19.75 56.5625 C-15.16424843 55.87463726 -14.01264732 54.64010538 -11.2734375 51.08203125 C-9.98945271 48.9827555 -9.1656695 47.01274847 -8.375 44.6875 C-7 41 -7 41 -5.2109375 39.87109375 C-2.90858151 38.96398176 -0.60457188 38.13677326 1.75 37.375 C2.54921875 37.11460938 3.3484375 36.85421875 4.171875 36.5859375 C4.77515625 36.39257812 5.3784375 36.19921875 6 36 C5.96519531 36.79664062 5.93039063 37.59328125 5.89453125 38.4140625 C5.63217721 46.63298175 5.63217721 46.63298175 9 54 C10.99114614 56.40668747 10.99114614 56.40668747 14.875 56.4375 C18.09168288 56.33222674 18.84465427 56.12039294 21.5 54.0625 C23.56125539 49.85410358 24.11435988 46.58808859 23 42 C19.51828261 35.98207952 13.98266324 32.54812509 8.30859375 28.80859375 C5.2889515 26.44295185 3.62815873 23.85779235 1.83984375 20.50390625 C1.42412109 19.75947266 1.42412109 19.75947266 1 19 C0.67 19 0.34 19 0 19 Z " fill="#000000" transform="translate(185,65)"/>
<path d="M0 0 C2.80682542 1.25623834 4.8058434 0.91931924 7.8359375 0.55859375 C8.82078125 0.44773438 9.805625 0.336875 10.8203125 0.22265625 C11.94179688 0.07957031 11.94179688 0.07957031 13.0859375 -0.06640625 C12.5446591 6.48220853 11.63117119 12.8114544 10.23828125 19.23046875 C9.87694572 20.94791511 9.51561782 22.66536307 9.15429688 24.3828125 C8.58746482 27.04477998 8.01857778 29.70629996 7.44897461 32.36767578 C6.89461644 34.96675084 6.34747187 37.56727192 5.80078125 40.16796875 C5.62892807 40.95870789 5.45707489 41.74944702 5.28001404 42.56414795 C4.39870819 46.76507594 3.89706662 50.61236568 4.0859375 54.93359375 C7.42967225 54.37630462 10.11906749 53.58185486 13.0859375 51.93359375 C12.9609375 53.68359375 12.9609375 53.68359375 12.0859375 55.93359375 C7.7217388 59.65912922 3.72970855 61.04601947 -1.9140625 60.93359375 C-6.21966201 59.97679386 -7.43509624 59.65204313 -9.9140625 55.93359375 C-10.45322396 53.27339145 -10.64776348 50.64096712 -10.9140625 47.93359375 C-11.36845703 48.73023437 -11.36845703 48.73023437 -11.83203125 49.54296875 C-15.13066485 55.10497248 -17.77941927 59.06285952 -24.2890625 60.87109375 C-28.7478623 60.94796961 -31.07547121 60.20831452 -34.9140625 57.93359375 C-36.87802982 55.7024873 -38.33280506 53.47318903 -39.9140625 50.93359375 C-40.4503125 51.86171875 -40.9865625 52.78984375 -41.5390625 53.74609375 C-44.21477909 57.33718707 -45.79619162 58.29318023 -49.9140625 59.93359375 C-52.64816021 60.27044357 -55.06469809 60.45615711 -57.7890625 60.43359375 C-58.49579102 60.43439941 -59.20251953 60.43520508 -59.93066406 60.43603516 C-65.1465304 60.29522843 -68.44578903 59.26772312 -72.3359375 55.83203125 C-73.11710937 55.38730469 -73.11710937 55.38730469 -73.9140625 54.93359375 C-76.31204082 55.81012749 -78.06578177 57.03895435 -80.1640625 58.49609375 C-85.31014638 61.18609214 -89.29546305 61.41121326 -94.7265625 59.80859375 C-98.27586752 57.72076727 -99.49407504 56.77591277 -100.9140625 52.93359375 C-101.39258882 46.9916294 -100.64871831 41.39924549 -99.3828125 35.609375 C-99.22744019 34.859478 -99.07206787 34.10958099 -98.9119873 33.33695984 C-98.42107933 30.97148407 -97.91865602 28.60868478 -97.4140625 26.24609375 C-96.91054375 23.87260389 -96.40977615 21.49865802 -95.9161377 19.12309265 C-95.61053129 17.65374349 -95.29925469 16.18555798 -94.98132324 14.71882629 C-94.14719094 10.72376055 -93.75819728 7.01272971 -93.9140625 2.93359375 C-95.5640625 2.60359375 -97.2140625 2.27359375 -98.9140625 1.93359375 C-98.9140625 0.94359375 -98.9140625 -0.04640625 -98.9140625 -1.06640625 C-91.3240625 -1.06640625 -83.7340625 -1.06640625 -75.9140625 -1.06640625 C-76.56379627 5.4309314 -77.29350023 11.37287671 -78.76171875 17.65234375 C-79.12329914 19.26035996 -79.48461943 20.86843468 -79.84570312 22.4765625 C-80.41019971 24.95877739 -80.97807308 27.44013296 -81.55102539 29.92041016 C-84.53119859 42.78000323 -84.53119859 42.78000323 -84.9140625 55.93359375 C-81.12775548 55.17792323 -79.5099581 53.80762102 -76.9140625 50.93359375 C-77.23761719 50.11375 -77.56117188 49.29390625 -77.89453125 48.44921875 C-79.04880946 44.46894905 -79.25867369 40.79061476 -79.2265625 36.68359375 C-79.22092285 35.93070068 -79.2152832 35.17780762 -79.20947266 34.40209961 C-78.97436951 23.58386308 -75.4975994 14.2937377 -68.28515625 6.078125 C-60.9488835 -0.81558837 -52.87828267 -1.39997812 -43.1484375 -1.46484375 C-38.75578037 -0.92371932 -36.11063368 0.60881852 -33.1640625 3.87109375 C-31.9139553 5.93377063 -31.43960477 7.60271648 -30.9140625 9.93359375 C-30.57375 9.4746875 -30.2334375 9.01578125 -29.8828125 8.54296875 C-25.40915375 2.87950714 -20.91271514 0.03960405 -13.9765625 -1.87890625 C-9.33742117 -2.16293531 -4.14751534 -2.31075855 0 0 Z M-53.3515625 2.30859375 C-63.35410176 12.55509738 -65.24678556 29.05093481 -65.13671875 42.69921875 C-64.78672411 47.78335146 -63.80486005 52.65945643 -60.48828125 56.6484375 C-58.87345011 58.18915282 -58.87345011 58.18915282 -56.0390625 58.37109375 C-51.97738029 57.80245824 -50.71697749 56.95211759 -47.9140625 53.93359375 C-46.49741307 51.35823974 -45.23231118 48.75888316 -44.02734375 46.078125 C-42.9140625 43.93359375 -42.9140625 43.93359375 -40.9140625 42.93359375 C-40.5840625 43.59359375 -40.2540625 44.25359375 -39.9140625 44.93359375 C-39.79289062 43.72703125 -39.67171875 42.52046875 -39.546875 41.27734375 C-39.37790369 39.66272904 -39.20861594 38.04814743 -39.0390625 36.43359375 C-38.96042969 35.64210937 -38.88179688 34.850625 -38.80078125 34.03515625 C-38.24751161 28.84293351 -37.289239 23.97205554 -35.9140625 18.93359375 C-38.8840625 19.59359375 -41.8540625 20.25359375 -44.9140625 20.93359375 C-44.5840625 19.94359375 -44.2540625 18.95359375 -43.9140625 17.93359375 C-43.76842037 15.60331968 -43.69324548 13.26823232 -43.6640625 10.93359375 C-43.63828125 9.69609375 -43.6125 8.45859375 -43.5859375 7.18359375 C-43.65507151 4.0056305 -43.65507151 4.0056305 -45.1796875 1.99609375 C-48.19845545 0.14675843 -50.40142105 0.6444114 -53.3515625 2.30859375 Z M-14.6640625 4.1015625 C-23.44271195 16.96777061 -27.60853208 34.40095594 -25.9140625 49.93359375 C-25.37496955 53.49870086 -25.37496955 53.49870086 -23.9140625 55.93359375 C-21.88139483 56.60866728 -21.88139483 56.60866728 -19.9140625 56.93359375 C-8.3416739 44.12840774 -3.57734029 20.94003202 -2.78051758 4.11352539 C-2.67108582 1.95572157 -2.67108582 1.95572157 -3.9140625 0.93359375 C-8.50862015 0.40345248 -11.55124656 0.38461452 -14.6640625 4.1015625 Z " fill="#000000" transform="translate(359.9140625,63.06640625)"/>
<path d="M0 0 C1.9375 1.1875 1.9375 1.1875 3 3 C3.68944734 6.96432218 3.32427783 8.51881355 1.0625 11.875 C-2.94925797 14.65866879 -6.23525349 14.8476609 -11 14 C-14 12 -14 12 -14.8125 9.6875 C-15.04183448 6.40037241 -14.71018953 4.82553053 -13 2 C-8.45524682 -1.17075803 -5.31624372 -1.40429079 0 0 Z " fill="#000000" transform="translate(284,38)"/>
<path d="M0 0 C2 2 2 2 2.4375 5.875 C2.33222674 9.09168288 2.12039294 9.84465427 0.0625 12.5 C-3.93248499 14.45672734 -7.61887111 14.9106841 -12 14 C-13.74609375 12.6875 -13.74609375 12.6875 -15 11 C-15.51126266 6.98293626 -15.68398851 4.89626081 -13.1875 1.625 C-8.63966327 -1.753393 -5.28583164 -0.92292298 0 0 Z " fill="#000000" transform="translate(190,127)"/>
</svg>
