<?xml version="1.0" encoding="UTF-8"?>
<svg version="1.1" xmlns="http://www.w3.org/2000/svg" width="500" height="500">
<path d="M0 0 C165 0 330 0 500 0 C500 165 500 330 500 500 C335 500 170 500 0 500 C0 335 0 170 0 0 Z " fill="#FEFEFE" transform="translate(0,0)"/>
<path d="M0 0 C165 0 330 0 500 0 C500 165 500 330 500 500 C335 500 170 500 0 500 C0 335 0 170 0 0 Z M13 13 C13 169.42 13 325.84 13 487 C169.42 487 325.84 487 487 487 C487 330.58 487 174.16 487 13 C330.58 13 174.16 13 13 13 Z " fill="#FAFAFA" transform="translate(0,0)"/>
<path d="M0 0 C7.92 0 15.84 0 24 0 C24 26.73 24 53.46 24 81 C46.44 81 68.88 81 92 81 C92 54.27 92 27.54 92 0 C99.92 0 107.84 0 116 0 C116 53.79 116 107.58 116 163 C108.08 163 100.16 163 92 163 C92 136.93 92 110.86 92 84 C69.56 84 47.12 84 24 84 C24 110.07 24 136.14 24 163 C16.08 163 8.16 163 0 163 C0 109.21 0 55.42 0 0 Z " fill="#050505" transform="translate(209,269)"/>
<path d="M0 0 C-1.7364998 8.27468466 -3.89385635 16.13215391 -7 24 C-8.4540625 23.41992188 -8.4540625 23.41992188 -9.9375 22.828125 C-32.4006107 14.03353853 -61.57059587 6.92502837 -84.828125 16.8203125 C-88.43451503 18.77917903 -90.20773544 21.41547089 -92 25 C-92.6021882 30.82115257 -91.98052735 34.36054616 -88.6015625 39.18359375 C-80.31844268 48.57786379 -65.57200044 50.7122314 -54 53.3125 C-45.25725486 55.35848549 -36.63428454 57.49666198 -28.1875 60.5625 C-27.46111328 60.81878174 -26.73472656 61.07506348 -25.98632812 61.33911133 C-18.69953779 64.12154366 -11.29349043 68.7268753 -8 76 C-7.18926803 82.23424931 -7.31300606 87.71530868 -11 93 C-14.77943507 97.78022006 -18.91157111 100.82128017 -25 102 C-43.11471012 103.85030456 -59.86677026 96.06047206 -76.48901367 89.8762207 C-84.91038453 86.93754302 -95.95150359 86.23175894 -104.3125 89.75 C-107.42418648 91.29055991 -109.21919533 93.00525341 -111 96 C-111.99834849 101.35780357 -111.72669752 106.53156753 -109 111.3125 C-99.8273875 123.86719308 -83.55716415 127.68313014 -69 130 C-46.42173514 132.88924509 -22.1669749 133.60446042 -2 122 C-2.63211431 124.20685522 -3.28932125 126.4020396 -3.97265625 128.59375 C-4.76878921 131.23339998 -5.48881963 133.86490921 -6.18359375 136.53125 C-9.57141212 148.80370283 -9.57141212 148.80370283 -13.40234375 152.01171875 C-16.00005944 153.06252405 -18.22657846 153.63218342 -21 154 C-22.36294189 154.25281738 -22.36294189 154.25281738 -23.75341797 154.51074219 C-29.51506985 155.3790194 -35.30894395 155.18456852 -41.125 155.1875 C-42.38054687 155.19974609 -43.63609375 155.21199219 -44.9296875 155.22460938 C-65.5613971 155.25671266 -85.49194039 150.81670304 -100.78125 136.27734375 C-111.42179269 125.35580082 -115.33469147 112.85475246 -115.3828125 97.8815918 C-115.23220138 90.12904115 -113.41601798 84.82445491 -108.203125 78.98828125 C-98.02847242 69.28166269 -85.09626644 67.39387229 -71.6015625 67.68359375 C-65.05230981 68.00713062 -59.1447255 69.79383848 -53 72 C-51.73313678 72.44809726 -50.46620815 72.89600965 -49.19921875 73.34375 C-46.81317772 74.19608449 -44.43221473 75.06288398 -42.05859375 75.94921875 C-37.17847227 77.62578667 -32.90641617 78.13770053 -27.75 78.125 C-26.69296875 78.12757813 -25.6359375 78.13015625 -24.546875 78.1328125 C-22.06517749 78.28828538 -22.06517749 78.28828538 -21 77 C-20.24755499 74.1724011 -20.24755499 74.1724011 -21 71 C-27.2795627 65.27826647 -36.249657 62.74106243 -44.3125 60.6875 C-45.11574707 60.47802734 -45.91899414 60.26855469 -46.74658203 60.05273438 C-52.79279561 58.49991281 -58.87141901 57.11983738 -64.96411133 55.76269531 C-99.09822438 48.13010143 -99.09822438 48.13010143 -109 34 C-112.0120559 27.96578063 -111.80424419 21.57756859 -111 15 C-107.5999777 5.74993933 -100.39215335 -0.5712704 -91.6875 -4.75 C-67.9891423 -14.74209534 -21.17629159 -17.50639562 0 0 Z " fill="#040404" transform="translate(216,83)"/>
<path d="M0 0 C1.59653706 2.34307044 2.05554683 3.52404568 1.72387695 6.3659668 C1.48113037 7.21843994 1.23838379 8.07091309 0.98828125 8.94921875 C0.59286133 10.34430664 0.59286133 10.34430664 0.18945312 11.76757812 C-0.09994141 12.73115234 -0.38933594 13.69472656 -0.6875 14.6875 C-0.95755859 15.66267578 -1.22761719 16.63785156 -1.50585938 17.64257812 C-3.07037148 23.00821988 -3.07037148 23.00821988 -4 25 C-7.81430149 26.27143383 -8.61909377 25.49088141 -12.1875 23.8125 C-17.18806078 21.62589669 -22.09069809 20.03940638 -27.375 18.75 C-28.04039795 18.58733643 -28.7057959 18.42467285 -29.39135742 18.25708008 C-37.58274352 16.31850346 -45.2101062 15.81367453 -53.61083984 15.81469727 C-55.59867481 15.81252872 -57.58647036 15.79406878 -59.57421875 15.77539062 C-75.00385205 15.75222301 -89.66500939 17.46402757 -101.4765625 28.25390625 C-104.9505972 32.23568449 -105.39413862 35.61289352 -105.2421875 40.75390625 C-104.87641735 44.14612941 -103.99592479 46.23145916 -102 49 C-97.24583864 52.11825739 -93.01306685 53.79913065 -87.375 54.6875 C-86.28191528 54.87227905 -86.28191528 54.87227905 -85.16674805 55.06079102 C-79.385857 55.96087922 -73.65410331 56.25559857 -67.8125 56.4375 C-60.15736815 56.67942771 -52.78581363 57.49655201 -45.25 58.875 C-44.35772705 59.03669678 -43.4654541 59.19839355 -42.54614258 59.36499023 C-27.07935117 62.36048877 -12.347543 68.34484295 -2.375 81.07421875 C2.61041086 88.62652271 4.54659463 95.79736785 4.4375 104.75 C4.42920166 105.62962402 4.42090332 106.50924805 4.41235352 107.41552734 C4.10798252 119.19392671 0.43396085 127.89816332 -7 137 C-7.50015625 137.62519531 -8.0003125 138.25039062 -8.515625 138.89453125 C-17.5676077 149.02086543 -32.75237185 155.38033612 -46 157 C-49.89663218 157.16625132 -53.78772228 157.18509421 -57.6875 157.1875 C-58.71294922 157.19974609 -59.73839844 157.21199219 -60.79492188 157.22460938 C-79.78937554 157.26060644 -96.8652753 151.43512533 -112 140 C-111.27080636 135.13870907 -109.510684 130.78311578 -107.6875 126.25 C-107.39166016 125.47011719 -107.09582031 124.69023437 -106.79101562 123.88671875 C-106.49259766 123.14550781 -106.19417969 122.40429688 -105.88671875 121.640625 C-105.48779419 120.62790527 -105.48779419 120.62790527 -105.08081055 119.59472656 C-104 118 -104 118 -102.06713867 117.18237305 C-98.71301747 116.88645613 -96.35920536 118.83553351 -93.625 120.5625 C-71.36010752 133.89450805 -47.15476422 137.70763447 -21.71875 132.04296875 C-13.26100823 129.67089201 -5.92689253 126.47528522 -1 119 C1.10617186 114.78765628 0.51507125 109.57574923 0 105 C-2.3119364 99.51185191 -7.81865927 97.20120121 -13 95 C-16.10878686 93.98270348 -19.24834618 93.22137813 -22.4375 92.5 C-23.78690674 92.18482422 -23.78690674 92.18482422 -25.16357422 91.86328125 C-32.27360901 90.25869142 -39.42037543 89.08798 -46.625 88 C-66.06180213 85.0327196 -88.34159273 81.45516804 -101.44921875 65.203125 C-108.72056198 54.63456608 -110.45471363 42.50866418 -109 30 C-106.50372646 18.45824088 -99.26712699 8.25760839 -89.75390625 1.375 C-65.87096312 -13.9100836 -24.76141736 -14.24402604 0 0 Z " fill="#040404" transform="translate(458,81)"/>
<path d="M0 0 C-0.77194219 5.41246825 -2.14570865 10.60469492 -3.5625 15.875 C-3.91344727 17.19371094 -3.91344727 17.19371094 -4.27148438 18.5390625 C-4.84518855 20.69338021 -5.42142164 22.8469872 -6 25 C-6.87140625 24.60167969 -7.7428125 24.20335937 -8.640625 23.79296875 C-16.33569046 20.37016366 -23.73379899 17.75830994 -32 16 C-32.90455933 15.74730347 -32.90455933 15.74730347 -33.82739258 15.48950195 C-41.16659185 13.56174925 -48.51848457 13.64545202 -56.0625 13.6875 C-56.75219879 13.68965515 -57.44189758 13.6918103 -58.15249634 13.69403076 C-73.12099173 13.76927009 -90.03418988 13.91478948 -101.8125 24.65234375 C-106.58107138 30.19309856 -106.51176349 34.9478991 -106 42 C-104.94535962 45.46524695 -103.78858839 46.52819498 -100.71484375 48.3671875 C-95.34395973 51.16732438 -90.63353681 52.95596205 -84.58959961 53.43310547 C-83.7244725 53.50342987 -82.8593454 53.57375427 -81.96800232 53.64620972 C-81.03883499 53.71913239 -80.10966766 53.79205505 -79.15234375 53.8671875 C-77.16467906 54.03213712 -75.17704993 54.19751566 -73.18945312 54.36328125 C-70.07203134 54.61998997 -66.95447032 54.8736614 -63.83618164 55.11962891 C-60.81572117 55.35945861 -57.79657647 55.61242193 -54.77734375 55.8671875 C-53.40484718 55.97049881 -53.40484718 55.97049881 -52.00462341 56.07589722 C-33.66976882 57.6595185 -16.1414647 64.8993444 -4 79 C3.02467811 88.40193199 4.02496107 99.64389727 3 111 C0.50012743 124.19873196 -6.12695094 135.08915982 -17 143 C-35.84014229 155.11972568 -58.78250907 158.44782658 -80.72509766 153.97363281 C-92.50894119 151.03600027 -103.29937168 145.17871465 -113 138 C-112.38696372 132.59491957 -110.55619307 128.07560955 -108.4375 123.125 C-107.9434668 121.949375 -107.9434668 121.949375 -107.43945312 120.75 C-106.63203214 118.83091244 -105.81680231 116.9151135 -105 115 C-101.80164624 115 -101.03210478 115.37146749 -98.40234375 116.9765625 C-97.33657104 117.60800171 -97.33657104 117.60800171 -96.24926758 118.25219727 C-95.48638428 118.70522217 -94.72350098 119.15824707 -93.9375 119.625 C-87.57609056 123.28574382 -81.29349487 126.28105271 -74.3125 128.5625 C-73.58345459 128.8011377 -72.85440918 129.03977539 -72.10327148 129.28564453 C-52.82948118 135.2615652 -28.86006121 134.1444276 -10.75 125.125 C-5.38962134 121.94579644 -2.9814197 118.94425911 -1 113 C-0.57098405 107.85180856 -0.60623647 104.0814208 -3.57421875 99.59375 C-14.12753364 87.79716787 -39.65670249 86.82137686 -54.5 85.125 C-71.94099631 82.85008744 -91.3406203 76.8628955 -103 63 C-110.27884527 51.44911261 -111.29271342 39.36466799 -110 26 C-107.14259477 14.21160176 -99.78665399 5.51630361 -89.9375 -1.21484375 C-67.08893923 -15.10020581 -21.98959366 -17.92516639 0 0 Z " fill="#040404" transform="translate(192,278)"/>
<path d="M0 0 C0.89468994 0.00491455 1.78937988 0.0098291 2.71118164 0.01489258 C18.39563244 0.28077695 36.80316983 1.34794656 50.25 10.3125 C51.10968529 15.99000491 48.9446191 21.33647301 47.25 26.6875 C46.96382813 27.61433594 46.67765625 28.54117188 46.3828125 29.49609375 C45.67933609 31.77066746 44.96823332 34.04255161 44.25 36.3125 C43.57195312 35.98636719 42.89390625 35.66023438 42.1953125 35.32421875 C35.97652925 32.40431914 29.8700719 30.12107634 23.25 28.3125 C22.05375 27.94125 20.8575 27.57 19.625 27.1875 C0.60278234 22.25581394 -28.31794736 22.20085698 -45.765625 32.06640625 C-51.23539191 35.50116145 -53.75285694 38.00573244 -55.75 44.3125 C-56.30390305 48.23534765 -55.92783934 51.6646567 -54.875 55.5 C-50.34734176 61.49248885 -43.6352039 63.39715746 -36.4375 64.5625 C-30.48573715 65.26612489 -24.54856491 65.51756324 -18.5625 65.75 C3.27238445 66.64907193 27.52893761 69.81623635 43.32421875 86.50390625 C52.30264394 97.32695548 54.2062336 108.56159154 53.25 122.3125 C50.68878484 135.4990992 44.34992482 146.52683941 33.40625 154.34375 C14.54191979 166.61472208 -8.47948157 169.78104902 -30.54760742 165.28613281 C-42.29366553 162.34241072 -53.07761922 156.47031074 -62.75 149.3125 C-62.14093708 144.08608167 -60.47396352 139.76603494 -58.375 135 C-58.07078125 134.27232422 -57.7665625 133.54464844 -57.453125 132.79492188 C-56.63854435 130.92730427 -55.70171281 129.11410481 -54.75 127.3125 C-51.75 126.3125 -51.75 126.3125 -49.50439453 127.23706055 C-48.63927246 127.71957275 -47.77415039 128.20208496 -46.8828125 128.69921875 C-45.92052734 129.22410889 -44.95824219 129.74899902 -43.96679688 130.28979492 C-42.94650391 130.8541626 -41.92621094 131.41853027 -40.875 132 C-19.07888332 143.72505252 5.49737726 147.57020494 29.6953125 140.515625 C38.12036999 137.66406708 44.06508948 135.04533893 48.5 127.0625 C49.93216825 121.81121641 49.99695017 117.21722294 48 112.125 C40.26490446 104.21410684 29.75109064 102.22390829 19.25 100.3125 C17.8063301 99.98599373 16.36367371 99.65498485 14.921875 99.3203125 C10.20644369 98.25728756 5.4740623 97.58875226 0.6875 96.9375 C-18.20736242 94.20660192 -39.88324446 90.16360642 -52.4375 74.328125 C-59.61373452 63.30747913 -60.94020872 51.21994063 -59.75 38.3125 C-58.1583491 30.85447865 -54.75954747 24.9859634 -49.75 19.3125 C-49.22535156 18.70664063 -48.70070312 18.10078125 -48.16015625 17.4765625 C-36.08218411 4.46077134 -17.26767683 -0.11535189 0 0 Z " fill="#040404" transform="translate(285.75,71.6875)"/>
<path d="M0 0 C156.42 0 312.84 0 474 0 C474 156.42 474 312.84 474 474 C317.58 474 161.16 474 0 474 C0 317.58 0 161.16 0 0 Z M3 3 C3 157.44 3 311.88 3 471 C157.44 471 311.88 471 471 471 C471 316.56 471 162.12 471 3 C316.56 3 162.12 3 3 3 Z " fill="#2A2A2A" transform="translate(13,13)"/>
<path d="M0 0 C7.92 0 15.84 0 24 0 C24 53.79 24 107.58 24 163 C16.08 163 8.16 163 0 163 C0 109.21 0 55.42 0 0 Z " fill="#040404" transform="translate(348,269)"/>
<path d="M0 0 C7.59 0 15.18 0 23 0 C23.09280014 18.17683369 23.16408264 36.35358544 23.20724869 54.53060532 C23.22782877 62.97149497 23.25586166 71.41223424 23.30175781 79.85302734 C23.34176571 87.21444978 23.36746588 94.57576324 23.37635398 101.93729138 C23.38154526 105.83120298 23.39365015 109.72480298 23.42292023 113.6186142 C23.45031069 117.29255889 23.45839804 120.96606718 23.45243073 124.64010429 C23.45403549 126.61309793 23.47543351 128.58604533 23.49768066 130.55891418 C23.45176357 140.60378376 22.01146948 151.03934315 14.78125 158.6015625 C6.88856363 164.79801364 -2.31831343 165.65401019 -12 165 C-16.64579087 163.91251711 -19.88574887 161.61253131 -23 158 C-20.62438872 156.81219436 -19.43707573 157.02035834 -16.8125 157.1875 C-11.87014529 157.21133772 -8.74091579 156.23644041 -5 153 C-0.26814724 145.85866802 -0.42019991 139.13800247 -0.45410156 130.78125 C-0.44535552 129.35150534 -0.43486616 127.92177045 -0.42277527 126.49205017 C-0.39502037 122.63099821 -0.39150824 118.7702673 -0.39249516 114.9091301 C-0.38935696 110.86651244 -0.36371996 106.82403745 -0.34051514 102.78149414 C-0.30002082 95.13545507 -0.27962992 87.48950114 -0.26654124 79.84337139 C-0.25064888 71.13469013 -0.21222389 62.42615331 -0.17194796 53.717556 C-0.08963896 35.8117462 -0.0362899 17.90595816 0 0 Z " fill="#000000" transform="translate(61,74)"/>
</svg>
